# xmcd
# 
# Track frame offsets:
#     150
#     11507
#     24375
#     38158
#     49997
#     62824
#     75570
#     86282
#     96678
#     108123
#     120118
#     131660
#     145157
#     157073
#     166659
#     180558
#     193663
#     206042
#     219229
#     231467
#     239725
#     252042
#     266076
#     281840
#     294223
#     303187
#     312421
# 
# Disc length: 4283
# 
# Revision: 0
# Processed by: cddbd v1.5.2PL0 Copyright (c) Steve Scherf et al.
# Submitted via: fre:ac v1.0.17
# 
DISCID=7c10b91b
DTITLE=Various Artist - Early Original Piano Boogie Woogie
DYEAR=0
DGENRE=Blues
TTITLE0=Gene Rodgers - Jukebox Boogie
TTITLE1=Elliot Carpenter - Hollywood Boogie
TTITLE2=Billy Penrose Quartet - Billy's Boogie
TTITLE3=Bobby Batson - Bobby's Boogie
TTITLE4=Maurice Rocco and Rockin' Rhythm - Tonky Blues
TTITLE5=Tony Short - Dipper Mouth Blues
TTITLE6=Al Winter with Lucky Henry and The Wildcats - Barcarole Boogie
TTITLE7=Hazel Scott - Hazel's Boogie Woogie
TTITLE8=Elliot Carpenter - I Don't Know Boogie
TTITLE9=Maurice Rocco and Rockin' Rhythm - Rocco's Boogie Woogie
TTITLE10=Bunny Banks - Paratroop Boogie
TTITLE11=Martha Davis and Her Torrid Trio - Martha Boogie
TTITLE12=Deryck Sampson - Table Top Boogie
TTITLE13=Lawrence"Piano Roll" Cook - Cook'n The Boogie
TTITLE14=Dorothy Donigan - Piano Boogie
TTITLE15=Pat Flowers - Eight Mile Boogie
TTITLE16=Jack Larue and His Quartet - Ringside Boogie
TTITLE17=Harry "The Hipster" Gibson - Barrelhouse Boogie
TTITLE18=Dorothy Donegan - Little Girl From St. Louis
TTITLE19=Lawrence "Piano Roll" Cook - Mason Dixie Boogie
TTITLE20=Pat Flowers - Canteen Honky Tonk Boogie
TTITLE21=Kenny Kersey Trio - Jatp Boogie
TTITLE22=Mary Lou Williams - Roll Em
TTITLE23=Harry "The Hipster" Gibson - Riot In Boogie
TTITLE24=Joshua Johnson - Battin' The Boogie
TTITLE25=Willie Johnson - Sampson Street Boogie
TTITLE26=Tom Harris and Charley Castner - Death and Transfiguration Stomp
EXTD=
EXTT0=
EXTT1=
EXTT2=
EXTT3=
EXTT4=
EXTT5=
EXTT6=
EXTT7=
EXTT8=
EXTT9=
EXTT10=
EXTT11=
EXTT12=
EXTT13=
EXTT14=
EXTT15=
EXTT16=
EXTT17=
EXTT18=
EXTT19=
EXTT20=
EXTT21=
EXTT22=
EXTT23=
EXTT24=
EXTT25=
EXTT26=
PLAYORDER=
